<svg xmlns="http://www.w3.org/2000/svg" viewBox="0 0 800 450" role="img" aria-label="Theme settings with preview">
  <rect width="800" height="450" fill="#1e2124"/>
  <text x="24" y="36" fill="#fff" font-family="system-ui,sans-serif" font-size="18" font-weight="600">Settings</text>
  <text x="24" y="68" fill="#9b9d9f" font-family="system-ui,sans-serif" font-size="12">Behavior</text>
  <text x="100" y="68" fill="#5CF8D0" font-family="system-ui,sans-serif" font-size="12" font-weight="600">Theme</text>
  <text x="160" y="68" fill="#9b9d9f" font-family="system-ui,sans-serif" font-size="12">Leads</text>
  <text x="24" y="100" fill="#9b9d9f" font-family="system-ui,sans-serif" font-size="11">Primary color</text>
  <rect x="24" y="108" width="40" height="28" rx="4" fill="#5CF8D0" stroke="#3d4248"/>
  <text x="80" y="100" fill="#9b9d9f" font-family="system-ui,sans-serif" font-size="11">Brand name</text>
  <rect x="80" y="108" width="200" height="28" rx="4" fill="#2a2d30" stroke="#3d4248"/>
  <text x="88" y="127" fill="#fff" font-family="system-ui,sans-serif" font-size="12">Demo Studio</text>
  <text x="24" y="160" fill="#9b9d9f" font-family="system-ui,sans-serif" font-size="11">Logo URL</text>
  <rect x="24" y="168" width="320" height="28" rx="4" fill="#2a2d30" stroke="#3d4248"/>
  <text x="32" y="187" fill="#9b9d9f" font-family="system-ui,sans-serif" font-size="11">https://&</text>
  <rect x="420" y="88" width="356" height="320" rx="8" fill="#252b33" stroke="#3d4248"/>
  <text x="436" y="112" fill="#9b9d9f" font-family="system-ui,sans-serif" font-size="10">Preview</text>
  <rect x="436" y="124" width="80" height="240" rx="4" fill="#2f3640"/>
  <text x="448" y="144" fill="#5CF8D0" font-family="system-ui,sans-serif" font-size="9" font-weight="600">Chapters</text>
  <rect x="524" y="124" width="236" height="180" rx="4" fill="#1a1f26"/>
  <polygon points="620,200 600,188 600,212" fill="#5CF8D0" opacity="0.6"/>
  <rect x="524" y="312" width="236" height="52" rx="4" fill="#2f3640"/>
  <text x="536" y="332" fill="#9b9d9f" font-family="system-ui,sans-serif" font-size="9">Chat</text>
</svg>
