<svg xmlns="http://www.w3.org/2000/svg" viewBox="0 0 800 450" role="img" aria-label="Flow Design list">
  <rect width="800" height="450" fill="#1e2124"/>
  <rect x="0" y="0" width="800" height="48" fill="#2a2d30"/>
  <text x="24" y="30" fill="#5CF8D0" font-family="system-ui,sans-serif" font-size="16" font-weight="700">Flow Design</text>
  <rect x="620" y="12" width="80" height="28" rx="6" fill="#5CF8D0"/>
  <text x="638" y="30" fill="#0d0e0f" font-family="system-ui,sans-serif" font-size="12" font-weight="600">New flow</text>
  <rect x="24" y="64" width="752" height="44" rx="6" fill="#2a2d30" stroke="#3d4248"/>
  <text x="44" y="91" fill="#fff" font-family="system-ui,sans-serif" font-size="13" font-weight="600">Product Tour</text>
  <rect x="520" y="76" width="36" height="20" rx="10" fill="#5CF8D0"/>
  <circle cx="544" cy="86" r="7" fill="#0d0e0f"/>
  <text x="580" y="91" fill="#9b9d9f" font-family="system-ui,sans-serif" font-size="11">/flow/product-tour</text>
  <rect x="24" y="120" width="752" height="44" rx="6" fill="#2a2d30" stroke="#3d4248"/>
  <text x="44" y="147" fill="#fff" font-family="system-ui,sans-serif" font-size="13" font-weight="600">Sales Demo</text>
  <rect x="520" y="132" width="36" height="20" rx="10" fill="#3d4248"/>
  <circle cx="528" cy="142" r="7" fill="#9b9d9f"/>
  <text x="580" y="147" fill="#9b9d9f" font-family="system-ui,sans-serif" font-size="11">/flow/sales-demo</text>
  <rect x="24" y="176" width="752" height="44" rx="6" fill="#2a2d30" stroke="#3d4248"/>
  <text x="44" y="203" fill="#fff" font-family="system-ui,sans-serif" font-size="13" font-weight="600">Onboarding Walkthrough</text>
  <rect x="520" y="188" width="36" height="20" rx="10" fill="#5CF8D0"/>
  <circle cx="544" cy="198" r="7" fill="#0d0e0f"/>
  <text x="580" y="203" fill="#9b9d9f" font-family="system-ui,sans-serif" font-size="11">/flow/onboarding</text>
</svg>
