<svg xmlns="http://www.w3.org/2000/svg" viewBox="0 0 800 450" role="img" aria-label="Visual flow editor">
  <rect width="800" height="450" fill="#1a1d20"/>
  <rect x="0" y="0" width="800" height="40" fill="#2a2d30"/>
  <text x="16" y="26" fill="#9b9d9f" font-family="system-ui,sans-serif" font-size="12">Flow editor</text>
  <text x="100" y="26" fill="#5CF8D0" font-family="system-ui,sans-serif" font-size="12">Chat scripts</text>
  <text x="200" y="26" fill="#9b9d9f" font-family="system-ui,sans-serif" font-size="12">Live Preview</text>
  <rect x="40" y="80" width="120" height="56" rx="8" fill="#2d4a3e" stroke="#5CF8D0" stroke-width="2"/>
  <text x="58" y="105" fill="#5CF8D0" font-family="system-ui,sans-serif" font-size="11" font-weight="600">Intro</text>
  <text x="58" y="122" fill="#9b9d9f" font-family="system-ui,sans-serif" font-size="10">Welcome screen</text>
  <line x1="160" y1="108" x2="220" y2="108" stroke="#5CF8D0" stroke-width="2"/>
  <polygon points="220,108 212,104 212,112" fill="#5CF8D0"/>
  <rect x="220" y="80" width="120" height="56" rx="8" fill="#2a3540" stroke="#6b9fd4"/>
  <text x="238" y="105" fill="#6b9fd4" font-family="system-ui,sans-serif" font-size="11" font-weight="600">Chapter 1</text>
  <text x="238" y="122" fill="#9b9d9f" font-family="system-ui,sans-serif" font-size="10">Product overview</text>
  <line x1="340" y1="108" x2="400" y2="108" stroke="#5CF8D0" stroke-width="2"/>
  <polygon points="400,108 392,104 392,112" fill="#5CF8D0"/>
  <rect x="400" y="80" width="120" height="56" rx="8" fill="#3d3540" stroke="#c49fd4"/>
  <text x="418" y="105" fill="#c49fd4" font-family="system-ui,sans-serif" font-size="11" font-weight="600">Question</text>
  <text x="418" y="122" fill="#9b9d9f" font-family="system-ui,sans-serif" font-size="10">Your role?</text>
  <line x1="460" y1="136" x2="460" y2="200" stroke="#5CF8D0" stroke-width="2"/>
  <line x1="460" y1="200" x2="220" y2="200" stroke="#5CF8D0" stroke-width="2"/>
  <line x1="220" y1="200" x2="220" y2="240" stroke="#5CF8D0" stroke-width="2"/>
  <rect x="160" y="240" width="120" height="56" rx="8" fill="#2a3540" stroke="#6b9fd4"/>
  <text x="178" y="265" fill="#6b9fd4" font-family="system-ui,sans-serif" font-size="11" font-weight="600">Chapter 2</text>
  <text x="178" y="282" fill="#9b9d9f" font-family="system-ui,sans-serif" font-size="10">For managers</text>
  <rect x="560" y="60" width="220" height="330" rx="8" fill="#252830" stroke="#3d4248"/>
  <text x="576" y="84" fill="#fff" font-family="system-ui,sans-serif" font-size="12" font-weight="600">Properties</text>
  <text x="576" y="110" fill="#9b9d9f" font-family="system-ui,sans-serif" font-size="10">Name</text>
  <rect x="576" y="118" width="188" height="24" rx="4" fill="#1e2124" stroke="#3d4248"/>
  <text x="584" y="134" fill="#fff" font-family="system-ui,sans-serif" font-size="10">Chapter 1</text>
  <text x="576" y="162" fill="#9b9d9f" font-family="system-ui,sans-serif" font-size="10">Video URL</text>
  <rect x="576" y="170" width="188" height="24" rx="4" fill="#1e2124" stroke="#3d4248"/>
  <text x="584" y="186" fill="#9b9d9f" font-family="system-ui,sans-serif" font-size="10">youtube.com/...</text>
</svg>
