<svg xmlns="http://www.w3.org/2000/svg" viewBox="0 0 800 450" role="img" aria-label="Event settings">
  <rect width="800" height="450" fill="#1e2124"/>
  <rect x="0" y="0" width="800" height="48" fill="#2a2d30"/>
  <text x="24" y="30" fill="#fff" font-family="system-ui,sans-serif" font-size="15" font-weight="600">Q1 Product Launch Webinar</text>
  <text x="24" y="68" fill="#5CF8D0" font-family="system-ui,sans-serif" font-size="12" font-weight="600">Settings</text>
  <text x="100" y="68" fill="#9b9d9f" font-family="system-ui,sans-serif" font-size="12">Schedule</text>
  <text x="180" y="68" fill="#9b9d9f" font-family="system-ui,sans-serif" font-size="12">Access</text>
  <text x="240" y="68" fill="#9b9d9f" font-family="system-ui,sans-serif" font-size="12">Attendees</text>
  <text x="24" y="100" fill="#9b9d9f" font-family="system-ui,sans-serif" font-size="11">Title</text>
  <rect x="24" y="108" width="360" height="28" rx="4" fill="#2a2d30" stroke="#3d4248"/>
  <text x="32" y="127" fill="#fff" font-family="system-ui,sans-serif" font-size="12">Q1 Product Launch Webinar</text>
  <text x="24" y="158" fill="#9b9d9f" font-family="system-ui,sans-serif" font-size="11">Slug</text>
  <rect x="24" y="166" width="360" height="28" rx="4" fill="#2a2d30" stroke="#3d4248"/>
  <text x="32" y="185" fill="#fff" font-family="system-ui,sans-serif" font-size="12">q1-product-launch</text>
  <text x="24" y="216" fill="#9b9d9f" font-family="system-ui,sans-serif" font-size="11">Flow</text>
  <rect x="24" y="224" width="360" height="28" rx="4" fill="#2a2d30" stroke="#3d4248"/>
  <text x="32" y="243" fill="#fff" font-family="system-ui,sans-serif" font-size="12">Product Tour</text>
  <text x="24" y="280" fill="#9b9d9f" font-family="system-ui,sans-serif" font-size="11">Holding heading</text>
  <rect x="24" y="288" width="360" height="28" rx="4" fill="#2a2d30" stroke="#3d4248"/>
  <text x="32" y="307" fill="#fff" font-family="system-ui,sans-serif" font-size="12">We go live in</text>
  <text x="420" y="100" fill="#9b9d9f" font-family="system-ui,sans-serif" font-size="11">Holding message</text>
  <rect x="420" y="108" width="356" height="80" rx="4" fill="#2a2d30" stroke="#3d4248"/>
  <text x="432" y="132" fill="#c8c9cb" font-family="system-ui,sans-serif" font-size="11">Join us for an exclusive first look</text>
  <text x="432" y="150" fill="#c8c9cb" font-family="system-ui,sans-serif" font-size="11">at our latest features.</text>
  <rect x="420" y="210" width="356" height="120" rx="8" fill="#151920" stroke="#3d4248"/>
  <text x="540" y="275" fill="#9b9d9f" font-family="system-ui,sans-serif" font-size="11">Lobby preview</text>
</svg>
